<svg width="199" height="82" viewBox="0 0 199 82" fill="none" xmlns="http://www.w3.org/2000/svg">
<path d="M35.04 21H33.44V9.656H35.04V21ZM39.2684 16.552V21H37.7644V13.304H39.2364V14.408C39.7484 13.5227 40.5377 13.08 41.6044 13.08C42.4897 13.08 43.167 13.3627 43.6364 13.928C44.1164 14.4933 44.3564 15.224 44.3564 16.12V21H42.8524V16.376C42.8524 15.0853 42.255 14.44 41.0604 14.44C40.495 14.44 40.0524 14.6427 39.7324 15.048C39.423 15.4427 39.2684 15.944 39.2684 16.552ZM50.6208 14.664H48.7648V21H47.2128V14.664H45.7888V13.304H47.2128V12.008C47.2128 11.1867 47.4528 10.5413 47.9328 10.072C48.4128 9.60267 49.0154 9.368 49.7408 9.368C50.1994 9.368 50.4981 9.42133 50.6368 9.528V10.872C50.4768 10.808 50.2581 10.776 49.9808 10.776C49.6501 10.776 49.3621 10.8773 49.1168 11.08C48.8821 11.272 48.7648 11.608 48.7648 12.088V13.304H50.6208V14.664ZM53.5046 19.176C53.974 19.656 54.5446 19.896 55.2166 19.896C55.8886 19.896 56.454 19.656 56.9126 19.176C57.382 18.6853 57.6166 18.008 57.6166 17.144C57.6166 16.2907 57.382 15.624 56.9126 15.144C56.454 14.6533 55.8886 14.408 55.2166 14.408C54.5446 14.408 53.974 14.6533 53.5046 15.144C53.046 15.624 52.8166 16.2907 52.8166 17.144C52.8166 18.008 53.046 18.6853 53.5046 19.176ZM52.3846 14.232C53.1313 13.4533 54.0753 13.064 55.2166 13.064C56.358 13.064 57.2966 13.4533 58.0326 14.232C58.7793 15 59.1526 15.9707 59.1526 17.144C59.1526 18.328 58.7846 19.3093 58.0486 20.088C57.3126 20.856 56.3686 21.24 55.2166 21.24C54.0646 21.24 53.1206 20.856 52.3846 20.088C51.6486 19.3093 51.2806 18.328 51.2806 17.144C51.2806 15.9707 51.6486 15 52.3846 14.232ZM69.4129 18.808C69.0182 18.808 68.6769 18.7227 68.3889 18.552C68.1009 18.3813 67.9142 18.1253 67.8289 17.784C67.3382 18.488 66.7035 18.84 65.9249 18.84C65.1995 18.84 64.6075 18.5893 64.1489 18.088C63.7009 17.5867 63.4769 16.9253 63.4769 16.104C63.4769 15.048 63.7915 14.1627 64.4209 13.448C65.0502 12.7333 65.8022 12.376 66.6769 12.376C67.0502 12.376 67.3969 12.4667 67.7169 12.648C68.0475 12.8293 68.2715 13.0907 68.3889 13.432L68.5329 12.584H69.7969L68.9329 16.6C68.9009 16.76 68.8849 16.9093 68.8849 17.048C68.8849 17.4853 69.0875 17.704 69.4929 17.704C69.9409 17.704 70.3409 17.4 70.6929 16.792C71.0449 16.1733 71.2209 15.464 71.2209 14.664C71.2209 13.48 70.8049 12.504 69.9729 11.736C69.1515 10.968 68.0742 10.584 66.7409 10.584C65.3222 10.584 64.1489 11.0587 63.2209 12.008C62.2929 12.9467 61.8289 14.1733 61.8289 15.688C61.8289 17.1173 62.2822 18.2907 63.1889 19.208C64.1062 20.1253 65.3489 20.584 66.9169 20.584C68.1649 20.584 69.2582 20.2107 70.1969 19.464L70.8529 20.328C70.3942 20.7547 69.7969 21.096 69.0609 21.352C68.3355 21.6187 67.6209 21.752 66.9169 21.752C65.0395 21.752 63.5035 21.192 62.3089 20.072C61.1142 18.9413 60.5169 17.4747 60.5169 15.672C60.5169 13.848 61.1195 12.3493 62.3249 11.176C63.5302 10.0027 64.9969 9.416 66.7249 9.416C68.3569 9.416 69.7169 9.91733 70.8049 10.92C71.9035 11.912 72.4529 13.1547 72.4529 14.648C72.4529 15.832 72.1542 16.824 71.5569 17.624C70.9702 18.4133 70.2555 18.808 69.4129 18.808ZM68.0369 15.08C68.0369 14.6 67.9195 14.232 67.6849 13.976C67.4502 13.7093 67.1195 13.576 66.6929 13.576C66.1382 13.576 65.6795 13.816 65.3169 14.296C64.9649 14.7653 64.7889 15.3093 64.7889 15.928C64.7889 17.0907 65.2422 17.672 66.1489 17.672C66.6929 17.672 67.1355 17.432 67.4769 16.952C67.8289 16.4613 68.0155 15.8373 68.0369 15.08ZM78.1676 14.664H76.3116V21H74.7596V14.664H73.3356V13.304H74.7596V12.008C74.7596 11.1867 74.9996 10.5413 75.4796 10.072C75.9596 9.60267 76.5623 9.368 77.2876 9.368C77.7463 9.368 78.045 9.42133 78.1836 9.528V10.872C78.0236 10.808 77.805 10.776 77.5276 10.776C77.197 10.776 76.909 10.8773 76.6636 11.08C76.429 11.272 76.3116 11.608 76.3116 12.088V13.304H78.1676V14.664ZM81.0515 19.176C81.5208 19.656 82.0915 19.896 82.7635 19.896C83.4355 19.896 84.0008 19.656 84.4595 19.176C84.9288 18.6853 85.1635 18.008 85.1635 17.144C85.1635 16.2907 84.9288 15.624 84.4595 15.144C84.0008 14.6533 83.4355 14.408 82.7635 14.408C82.0915 14.408 81.5208 14.6533 81.0515 15.144C80.5928 15.624 80.3635 16.2907 80.3635 17.144C80.3635 18.008 80.5928 18.6853 81.0515 19.176ZM79.9315 14.232C80.6782 13.4533 81.6222 13.064 82.7635 13.064C83.9048 13.064 84.8435 13.4533 85.5795 14.232C86.3262 15 86.6995 15.9707 86.6995 17.144C86.6995 18.328 86.3315 19.3093 85.5955 20.088C84.8595 20.856 83.9155 21.24 82.7635 21.24C81.6115 21.24 80.6675 20.856 79.9315 20.088C79.1955 19.3093 78.8275 18.328 78.8275 17.144C78.8275 15.9707 79.1955 15 79.9315 14.232ZM90.2078 19.176C90.6771 19.656 91.2478 19.896 91.9198 19.896C92.5918 19.896 93.1571 19.656 93.6158 19.176C94.0851 18.6853 94.3198 18.008 94.3198 17.144C94.3198 16.2907 94.0851 15.624 93.6158 15.144C93.1571 14.6533 92.5918 14.408 91.9198 14.408C91.2478 14.408 90.6771 14.6533 90.2078 15.144C89.7491 15.624 89.5198 16.2907 89.5198 17.144C89.5198 18.008 89.7491 18.6853 90.2078 19.176ZM89.0878 14.232C89.8344 13.4533 90.7784 13.064 91.9198 13.064C93.0611 13.064 93.9998 13.4533 94.7358 14.232C95.4824 15 95.8558 15.9707 95.8558 17.144C95.8558 18.328 95.4878 19.3093 94.7518 20.088C94.0158 20.856 93.0718 21.24 91.9198 21.24C90.7678 21.24 89.8238 20.856 89.0878 20.088C88.3518 19.3093 87.9838 18.328 87.9838 17.144C87.9838 15.9707 88.3518 15 89.0878 14.232ZM98.676 17.128C98.676 17.9387 98.8733 18.6 99.268 19.112C99.6733 19.624 100.228 19.88 100.932 19.88C101.604 19.88 102.143 19.6187 102.548 19.096C102.953 18.5733 103.156 17.9067 103.156 17.096C103.156 16.296 102.959 15.6507 102.564 15.16C102.169 14.6693 101.631 14.424 100.948 14.424C100.265 14.424 99.716 14.6747 99.3 15.176C98.884 15.6773 98.676 16.328 98.676 17.128ZM103.172 19.96V19.832C102.969 20.2267 102.66 20.5573 102.244 20.824C101.839 21.08 101.353 21.208 100.788 21.208C99.6893 21.208 98.804 20.824 98.132 20.056C97.4707 19.2773 97.14 18.3013 97.14 17.128C97.14 16.008 97.4813 15.0587 98.164 14.28C98.8467 13.4907 99.7213 13.096 100.788 13.096C101.417 13.096 101.929 13.224 102.324 13.48C102.719 13.7253 102.991 14.0293 103.14 14.392V9.416H104.628V19.576C104.628 20.0987 104.655 20.5733 104.708 21H103.252C103.199 20.7013 103.172 20.3547 103.172 19.96ZM114.338 22.264H106.146V21H114.338V22.264ZM117.346 24.04H115.858V13.304H117.314V14.504C117.538 14.0987 117.874 13.768 118.322 13.512C118.77 13.256 119.293 13.128 119.89 13.128C120.999 13.128 121.863 13.5067 122.482 14.264C123.111 15.0213 123.426 15.9813 123.426 17.144C123.426 18.3173 123.101 19.288 122.45 20.056C121.81 20.824 120.941 21.208 119.842 21.208C119.277 21.208 118.775 21.0907 118.338 20.856C117.901 20.6213 117.57 20.3227 117.346 19.96V24.04ZM121.89 17.144C121.89 16.3653 121.682 15.7253 121.266 15.224C120.861 14.712 120.311 14.456 119.618 14.456C118.935 14.456 118.381 14.712 117.954 15.224C117.538 15.7253 117.33 16.3653 117.33 17.144C117.33 17.944 117.538 18.6 117.954 19.112C118.381 19.6133 118.935 19.864 119.618 19.864C120.301 19.864 120.85 19.6133 121.266 19.112C121.682 18.6 121.89 17.944 121.89 17.144ZM124.863 18.936C124.863 18.2747 125.076 17.7467 125.503 17.352C125.929 16.9467 126.495 16.696 127.199 16.6L129.279 16.296C129.673 16.2427 129.871 16.0507 129.871 15.72C129.871 15.3147 129.732 14.984 129.455 14.728C129.177 14.472 128.761 14.344 128.207 14.344C127.695 14.344 127.289 14.488 126.991 14.776C126.692 15.0533 126.516 15.4267 126.463 15.896L125.023 15.56C125.097 14.824 125.433 14.2267 126.031 13.768C126.628 13.2987 127.343 13.064 128.174 13.064C129.263 13.064 130.068 13.3307 130.591 13.864C131.113 14.3867 131.375 15.0587 131.375 15.88V19.736C131.375 20.1947 131.407 20.616 131.471 21H129.999C129.945 20.68 129.919 20.3333 129.919 19.96C129.705 20.3013 129.391 20.6 128.975 20.856C128.569 21.112 128.057 21.24 127.439 21.24C126.681 21.24 126.063 21.016 125.583 20.568C125.103 20.1093 124.863 19.5653 124.863 18.936ZM127.647 19.976C128.319 19.976 128.857 19.7947 129.263 19.432C129.668 19.0693 129.871 18.4933 129.871 17.704V17.352L127.519 17.704C127.177 17.7573 126.905 17.88 126.703 18.072C126.5 18.264 126.399 18.5253 126.399 18.856C126.399 19.1547 126.511 19.416 126.735 19.64C126.969 19.864 127.273 19.976 127.647 19.976ZM135.222 21H133.718V9.416H135.222V21ZM137.3 18.936C137.3 18.2747 137.513 17.7467 137.94 17.352C138.367 16.9467 138.932 16.696 139.636 16.6L141.716 16.296C142.111 16.2427 142.308 16.0507 142.308 15.72C142.308 15.3147 142.169 14.984 141.892 14.728C141.615 14.472 141.199 14.344 140.644 14.344C140.132 14.344 139.727 14.488 139.428 14.776C139.129 15.0533 138.953 15.4267 138.9 15.896L137.46 15.56C137.535 14.824 137.871 14.2267 138.468 13.768C139.065 13.2987 139.78 13.064 140.612 13.064C141.7 13.064 142.505 13.3307 143.028 13.864C143.551 14.3867 143.812 15.0587 143.812 15.88V19.736C143.812 20.1947 143.844 20.616 143.908 21H142.436C142.383 20.68 142.356 20.3333 142.356 19.96C142.143 20.3013 141.828 20.6 141.412 20.856C141.007 21.112 140.495 21.24 139.876 21.24C139.119 21.24 138.5 21.016 138.02 20.568C137.54 20.1093 137.3 19.5653 137.3 18.936ZM140.084 19.976C140.756 19.976 141.295 19.7947 141.7 19.432C142.105 19.0693 142.308 18.4933 142.308 17.704V17.352L139.956 17.704C139.615 17.7573 139.343 17.88 139.14 18.072C138.937 18.264 138.836 18.5253 138.836 18.856C138.836 19.1547 138.948 19.416 139.172 19.64C139.407 19.864 139.711 19.976 140.084 19.976ZM149.387 14.456C148.736 14.456 148.182 14.6907 147.723 15.16C147.275 15.6293 147.051 16.2907 147.051 17.144C147.051 17.9867 147.275 18.648 147.723 19.128C148.182 19.608 148.742 19.848 149.403 19.848C150.043 19.848 150.528 19.688 150.859 19.368C151.2 19.048 151.43 18.68 151.547 18.264L152.875 18.84C152.662 19.48 152.256 20.04 151.659 20.52C151.072 21 150.32 21.24 149.403 21.24C148.283 21.24 147.355 20.8507 146.619 20.072C145.883 19.2933 145.515 18.3173 145.515 17.144C145.515 15.9493 145.883 14.9733 146.619 14.216C147.355 13.448 148.278 13.064 149.387 13.064C150.326 13.064 151.083 13.304 151.659 13.784C152.246 14.264 152.63 14.84 152.811 15.512L151.451 16.088C151.334 15.64 151.11 15.256 150.779 14.936C150.448 14.616 149.984 14.456 149.387 14.456ZM155.537 16.36H159.745C159.724 15.784 159.532 15.3147 159.169 14.952C158.807 14.5787 158.295 14.392 157.633 14.392C157.036 14.392 156.545 14.5893 156.161 14.984C155.777 15.368 155.569 15.8267 155.537 16.36ZM159.969 18.36L161.265 18.808C161.041 19.5227 160.625 20.1093 160.017 20.568C159.409 21.016 158.673 21.24 157.809 21.24C156.732 21.24 155.815 20.872 155.057 20.136C154.311 19.3893 153.937 18.3867 153.937 17.128C153.937 15.9547 154.3 14.984 155.025 14.216C155.751 13.448 156.615 13.064 157.617 13.064C158.78 13.064 159.687 13.432 160.337 14.168C160.988 14.8933 161.313 15.8693 161.313 17.096C161.313 17.288 161.303 17.448 161.281 17.576H155.489C155.5 18.2587 155.724 18.8187 156.161 19.256C156.609 19.6933 157.159 19.912 157.809 19.912C158.908 19.912 159.628 19.3947 159.969 18.36ZM163.159 20.76C162.945 20.5467 162.839 20.2853 162.839 19.976C162.839 19.6667 162.945 19.4053 163.159 19.192C163.372 18.968 163.633 18.856 163.943 18.856C164.252 18.856 164.513 18.968 164.727 19.192C164.951 19.4053 165.063 19.6667 165.063 19.976C165.063 20.2853 164.951 20.5467 164.727 20.76C164.513 20.9733 164.252 21.08 163.943 21.08C163.633 21.08 163.372 20.9733 163.159 20.76ZM170.465 14.456C169.814 14.456 169.26 14.6907 168.801 15.16C168.353 15.6293 168.129 16.2907 168.129 17.144C168.129 17.9867 168.353 18.648 168.801 19.128C169.26 19.608 169.82 19.848 170.481 19.848C171.121 19.848 171.606 19.688 171.937 19.368C172.278 19.048 172.508 18.68 172.625 18.264L173.953 18.84C173.74 19.48 173.334 20.04 172.737 20.52C172.15 21 171.398 21.24 170.481 21.24C169.361 21.24 168.433 20.8507 167.697 20.072C166.961 19.2933 166.593 18.3173 166.593 17.144C166.593 15.9493 166.961 14.9733 167.697 14.216C168.433 13.448 169.356 13.064 170.465 13.064C171.404 13.064 172.161 13.304 172.737 13.784C173.324 14.264 173.708 14.84 173.889 15.512L172.529 16.088C172.412 15.64 172.188 15.256 171.857 14.936C171.526 14.616 171.062 14.456 170.465 14.456ZM177.223 19.176C177.693 19.656 178.263 19.896 178.935 19.896C179.607 19.896 180.173 19.656 180.631 19.176C181.101 18.6853 181.335 18.008 181.335 17.144C181.335 16.2907 181.101 15.624 180.631 15.144C180.173 14.6533 179.607 14.408 178.935 14.408C178.263 14.408 177.693 14.6533 177.223 15.144C176.765 15.624 176.535 16.2907 176.535 17.144C176.535 18.008 176.765 18.6853 177.223 19.176ZM176.103 14.232C176.85 13.4533 177.794 13.064 178.935 13.064C180.077 13.064 181.015 13.4533 181.751 14.232C182.498 15 182.871 15.9707 182.871 17.144C182.871 18.328 182.503 19.3093 181.767 20.088C181.031 20.856 180.087 21.24 178.935 21.24C177.783 21.24 176.839 20.856 176.103 20.088C175.367 19.3093 174.999 18.328 174.999 17.144C174.999 15.9707 175.367 15 176.103 14.232ZM186.284 21H184.796V13.304H186.236V14.328C186.47 13.9227 186.801 13.6133 187.228 13.4C187.654 13.1867 188.102 13.08 188.572 13.08C189.073 13.08 189.532 13.2027 189.948 13.448C190.364 13.6933 190.673 14.056 190.876 14.536C191.409 13.5653 192.268 13.08 193.452 13.08C194.188 13.08 194.812 13.3307 195.324 13.832C195.846 14.3333 196.108 15.0587 196.108 16.008V21H194.62V16.168C194.62 15.6347 194.481 15.208 194.204 14.888C193.937 14.568 193.532 14.408 192.988 14.408C192.465 14.408 192.038 14.5947 191.708 14.968C191.377 15.3307 191.212 15.7893 191.212 16.344V21H189.708V16.168C189.708 15.6347 189.569 15.208 189.292 14.888C189.025 14.568 188.62 14.408 188.076 14.408C187.542 14.408 187.11 14.5893 186.78 14.952C186.449 15.3147 186.284 15.784 186.284 16.36V21Z" fill="#3F3232"/>
<path d="M37.616 65.304H39.168L41.168 71.096L42.864 65.304H44.448L41.952 73H40.4L38.352 67.144L36.352 73H34.768L32.24 65.304H33.888L35.616 71.096L37.616 65.304ZM50.3035 65.304H51.8555L53.8555 71.096L55.5515 65.304H57.1355L54.6395 73H53.0875L51.0395 67.144L49.0395 73H47.4555L44.9275 65.304H46.5755L48.3035 71.096L50.3035 65.304ZM62.991 65.304H64.543L66.543 71.096L68.239 65.304H69.823L67.327 73H65.775L63.727 67.144L61.727 73H60.143L57.615 65.304H59.263L60.991 71.096L62.991 65.304ZM70.8619 72.76C70.6485 72.5467 70.5419 72.2853 70.5419 71.976C70.5419 71.6667 70.6485 71.4053 70.8619 71.192C71.0752 70.968 71.3365 70.856 71.6459 70.856C71.9552 70.856 72.2165 70.968 72.4299 71.192C72.6539 71.4053 72.7659 71.6667 72.7659 71.976C72.7659 72.2853 72.6539 72.5467 72.4299 72.76C72.2165 72.9733 71.9552 73.08 71.6459 73.08C71.3365 73.08 71.0752 72.9733 70.8619 72.76ZM79.0426 66.664H77.1866V73H75.6346V66.664H74.2106V65.304H75.6346V64.008C75.6346 63.1867 75.8746 62.5413 76.3546 62.072C76.8346 61.6027 77.4373 61.368 78.1626 61.368C78.6213 61.368 78.92 61.4213 79.0586 61.528V62.872C78.8986 62.808 78.68 62.776 78.4026 62.776C78.072 62.776 77.784 62.8773 77.5386 63.08C77.304 63.272 77.1866 63.608 77.1866 64.088V65.304H79.0426V66.664ZM81.9265 71.176C82.3958 71.656 82.9665 71.896 83.6385 71.896C84.3105 71.896 84.8758 71.656 85.3345 71.176C85.8038 70.6853 86.0385 70.008 86.0385 69.144C86.0385 68.2907 85.8038 67.624 85.3345 67.144C84.8758 66.6533 84.3105 66.408 83.6385 66.408C82.9665 66.408 82.3958 66.6533 81.9265 67.144C81.4678 67.624 81.2385 68.2907 81.2385 69.144C81.2385 70.008 81.4678 70.6853 81.9265 71.176ZM80.8065 66.232C81.5532 65.4533 82.4972 65.064 83.6385 65.064C84.7798 65.064 85.7185 65.4533 86.4545 66.232C87.2012 67 87.5745 67.9707 87.5745 69.144C87.5745 70.328 87.2065 71.3093 86.4705 72.088C85.7345 72.856 84.7905 73.24 83.6385 73.24C82.4865 73.24 81.5425 72.856 80.8065 72.088C80.0705 71.3093 79.7025 70.328 79.7025 69.144C79.7025 67.9707 80.0705 67 80.8065 66.232ZM91.0828 71.176C91.5521 71.656 92.1228 71.896 92.7948 71.896C93.4668 71.896 94.0321 71.656 94.4908 71.176C94.9601 70.6853 95.1948 70.008 95.1948 69.144C95.1948 68.2907 94.9601 67.624 94.4908 67.144C94.0321 66.6533 93.4668 66.408 92.7948 66.408C92.1228 66.408 91.5521 66.6533 91.0828 67.144C90.6241 67.624 90.3948 68.2907 90.3948 69.144C90.3948 70.008 90.6241 70.6853 91.0828 71.176ZM89.9628 66.232C90.7094 65.4533 91.6534 65.064 92.7948 65.064C93.9361 65.064 94.8748 65.4533 95.6108 66.232C96.3574 67 96.7308 67.9707 96.7308 69.144C96.7308 70.328 96.3628 71.3093 95.6268 72.088C94.8908 72.856 93.9468 73.24 92.7948 73.24C91.6428 73.24 90.6988 72.856 89.9628 72.088C89.2268 71.3093 88.8588 70.328 88.8588 69.144C88.8588 67.9707 89.2268 67 89.9628 66.232ZM99.551 69.128C99.551 69.9387 99.7483 70.6 100.143 71.112C100.548 71.624 101.103 71.88 101.807 71.88C102.479 71.88 103.018 71.6187 103.423 71.096C103.828 70.5733 104.031 69.9067 104.031 69.096C104.031 68.296 103.834 67.6507 103.439 67.16C103.044 66.6693 102.506 66.424 101.823 66.424C101.14 66.424 100.591 66.6747 100.175 67.176C99.759 67.6773 99.551 68.328 99.551 69.128ZM104.047 71.96V71.832C103.844 72.2267 103.535 72.5573 103.119 72.824C102.714 73.08 102.228 73.208 101.663 73.208C100.564 73.208 99.679 72.824 99.007 72.056C98.3457 71.2773 98.015 70.3013 98.015 69.128C98.015 68.008 98.3563 67.0587 99.039 66.28C99.7217 65.4907 100.596 65.096 101.663 65.096C102.292 65.096 102.804 65.224 103.199 65.48C103.594 65.7253 103.866 66.0293 104.015 66.392V61.416H105.503V71.576C105.503 72.0987 105.53 72.5733 105.583 73H104.127C104.074 72.7013 104.047 72.3547 104.047 71.96ZM115.213 74.264H107.021V73H115.213V74.264ZM118.221 76.04H116.733V65.304H118.189V66.504C118.413 66.0987 118.749 65.768 119.197 65.512C119.645 65.256 120.168 65.128 120.765 65.128C121.874 65.128 122.738 65.5067 123.357 66.264C123.986 67.0213 124.301 67.9813 124.301 69.144C124.301 70.3173 123.976 71.288 123.325 72.056C122.685 72.824 121.816 73.208 120.717 73.208C120.152 73.208 119.65 73.0907 119.213 72.856C118.776 72.6213 118.445 72.3227 118.221 71.96V76.04ZM122.765 69.144C122.765 68.3653 122.557 67.7253 122.141 67.224C121.736 66.712 121.186 66.456 120.493 66.456C119.81 66.456 119.256 66.712 118.829 67.224C118.413 67.7253 118.205 68.3653 118.205 69.144C118.205 69.944 118.413 70.6 118.829 71.112C119.256 71.6133 119.81 71.864 120.493 71.864C121.176 71.864 121.725 71.6133 122.141 71.112C122.557 70.6 122.765 69.944 122.765 69.144ZM125.738 70.936C125.738 70.2747 125.951 69.7467 126.378 69.352C126.804 68.9467 127.37 68.696 128.074 68.6L130.154 68.296C130.548 68.2427 130.746 68.0507 130.746 67.72C130.746 67.3147 130.607 66.984 130.33 66.728C130.052 66.472 129.636 66.344 129.082 66.344C128.57 66.344 128.164 66.488 127.866 66.776C127.567 67.0533 127.391 67.4267 127.338 67.896L125.898 67.56C125.972 66.824 126.308 66.2267 126.906 65.768C127.503 65.2987 128.218 65.064 129.049 65.064C130.138 65.064 130.943 65.3307 131.466 65.864C131.988 66.3867 132.25 67.0587 132.25 67.88V71.736C132.25 72.1947 132.282 72.616 132.346 73H130.874C130.82 72.68 130.794 72.3333 130.794 71.96C130.58 72.3013 130.266 72.6 129.85 72.856C129.444 73.112 128.932 73.24 128.314 73.24C127.556 73.24 126.938 73.016 126.458 72.568C125.978 72.1093 125.738 71.5653 125.738 70.936ZM128.522 71.976C129.194 71.976 129.732 71.7947 130.138 71.432C130.543 71.0693 130.746 70.4933 130.746 69.704V69.352L128.394 69.704C128.052 69.7573 127.78 69.88 127.578 70.072C127.375 70.264 127.274 70.5253 127.274 70.856C127.274 71.1547 127.386 71.416 127.61 71.64C127.844 71.864 128.148 71.976 128.522 71.976ZM136.097 73H134.593V61.416H136.097V73ZM138.175 70.936C138.175 70.2747 138.388 69.7467 138.815 69.352C139.242 68.9467 139.807 68.696 140.511 68.6L142.591 68.296C142.986 68.2427 143.183 68.0507 143.183 67.72C143.183 67.3147 143.044 66.984 142.767 66.728C142.49 66.472 142.074 66.344 141.519 66.344C141.007 66.344 140.602 66.488 140.303 66.776C140.004 67.0533 139.828 67.4267 139.775 67.896L138.335 67.56C138.41 66.824 138.746 66.2267 139.343 65.768C139.94 65.2987 140.655 65.064 141.487 65.064C142.575 65.064 143.38 65.3307 143.903 65.864C144.426 66.3867 144.687 67.0587 144.687 67.88V71.736C144.687 72.1947 144.719 72.616 144.783 73H143.311C143.258 72.68 143.231 72.3333 143.231 71.96C143.018 72.3013 142.703 72.6 142.287 72.856C141.882 73.112 141.37 73.24 140.751 73.24C139.994 73.24 139.375 73.016 138.895 72.568C138.415 72.1093 138.175 71.5653 138.175 70.936ZM140.959 71.976C141.631 71.976 142.17 71.7947 142.575 71.432C142.98 71.0693 143.183 70.4933 143.183 69.704V69.352L140.831 69.704C140.49 69.7573 140.218 69.88 140.015 70.072C139.812 70.264 139.711 70.5253 139.711 70.856C139.711 71.1547 139.823 71.416 140.047 71.64C140.282 71.864 140.586 71.976 140.959 71.976ZM150.262 66.456C149.611 66.456 149.057 66.6907 148.598 67.16C148.15 67.6293 147.926 68.2907 147.926 69.144C147.926 69.9867 148.15 70.648 148.598 71.128C149.057 71.608 149.617 71.848 150.278 71.848C150.918 71.848 151.403 71.688 151.734 71.368C152.075 71.048 152.305 70.68 152.422 70.264L153.75 70.84C153.537 71.48 153.131 72.04 152.534 72.52C151.947 73 151.195 73.24 150.278 73.24C149.158 73.24 148.23 72.8507 147.494 72.072C146.758 71.2933 146.39 70.3173 146.39 69.144C146.39 67.9493 146.758 66.9733 147.494 66.216C148.23 65.448 149.153 65.064 150.262 65.064C151.201 65.064 151.958 65.304 152.534 65.784C153.121 66.264 153.505 66.84 153.686 67.512L152.326 68.088C152.209 67.64 151.985 67.256 151.654 66.936C151.323 66.616 150.859 66.456 150.262 66.456ZM156.412 68.36H160.62C160.599 67.784 160.407 67.3147 160.044 66.952C159.682 66.5787 159.17 66.392 158.508 66.392C157.911 66.392 157.42 66.5893 157.036 66.984C156.652 67.368 156.444 67.8267 156.412 68.36ZM160.844 70.36L162.14 70.808C161.916 71.5227 161.5 72.1093 160.892 72.568C160.284 73.016 159.548 73.24 158.684 73.24C157.607 73.24 156.69 72.872 155.932 72.136C155.186 71.3893 154.812 70.3867 154.812 69.128C154.812 67.9547 155.175 66.984 155.9 66.216C156.626 65.448 157.49 65.064 158.492 65.064C159.655 65.064 160.562 65.432 161.212 66.168C161.863 66.8933 162.188 67.8693 162.188 69.096C162.188 69.288 162.178 69.448 162.156 69.576H156.364C156.375 70.2587 156.599 70.8187 157.036 71.256C157.484 71.6933 158.034 71.912 158.684 71.912C159.783 71.912 160.503 71.3947 160.844 70.36ZM164.034 72.76C163.82 72.5467 163.714 72.2853 163.714 71.976C163.714 71.6667 163.82 71.4053 164.034 71.192C164.247 70.968 164.508 70.856 164.818 70.856C165.127 70.856 165.388 70.968 165.602 71.192C165.826 71.4053 165.938 71.6667 165.938 71.976C165.938 72.2853 165.826 72.5467 165.602 72.76C165.388 72.9733 165.127 73.08 164.818 73.08C164.508 73.08 164.247 72.9733 164.034 72.76ZM171.34 66.456C170.689 66.456 170.135 66.6907 169.676 67.16C169.228 67.6293 169.004 68.2907 169.004 69.144C169.004 69.9867 169.228 70.648 169.676 71.128C170.135 71.608 170.695 71.848 171.356 71.848C171.996 71.848 172.481 71.688 172.812 71.368C173.153 71.048 173.383 70.68 173.5 70.264L174.828 70.84C174.615 71.48 174.209 72.04 173.612 72.52C173.025 73 172.273 73.24 171.356 73.24C170.236 73.24 169.308 72.8507 168.572 72.072C167.836 71.2933 167.468 70.3173 167.468 69.144C167.468 67.9493 167.836 66.9733 168.572 66.216C169.308 65.448 170.231 65.064 171.34 65.064C172.279 65.064 173.036 65.304 173.612 65.784C174.199 66.264 174.583 66.84 174.764 67.512L173.404 68.088C173.287 67.64 173.063 67.256 172.732 66.936C172.401 66.616 171.937 66.456 171.34 66.456ZM178.098 71.176C178.568 71.656 179.138 71.896 179.81 71.896C180.482 71.896 181.048 71.656 181.506 71.176C181.976 70.6853 182.21 70.008 182.21 69.144C182.21 68.2907 181.976 67.624 181.506 67.144C181.048 66.6533 180.482 66.408 179.81 66.408C179.138 66.408 178.568 66.6533 178.098 67.144C177.64 67.624 177.41 68.2907 177.41 69.144C177.41 70.008 177.64 70.6853 178.098 71.176ZM176.978 66.232C177.725 65.4533 178.669 65.064 179.81 65.064C180.952 65.064 181.89 65.4533 182.626 66.232C183.373 67 183.746 67.9707 183.746 69.144C183.746 70.328 183.378 71.3093 182.642 72.088C181.906 72.856 180.962 73.24 179.81 73.24C178.658 73.24 177.714 72.856 176.978 72.088C176.242 71.3093 175.874 70.328 175.874 69.144C175.874 67.9707 176.242 67 176.978 66.232ZM187.159 73H185.671V65.304H187.111V66.328C187.345 65.9227 187.676 65.6133 188.103 65.4C188.529 65.1867 188.977 65.08 189.447 65.08C189.948 65.08 190.407 65.2027 190.823 65.448C191.239 65.6933 191.548 66.056 191.751 66.536C192.284 65.5653 193.143 65.08 194.327 65.08C195.063 65.08 195.687 65.3307 196.199 65.832C196.721 66.3333 196.983 67.0587 196.983 68.008V73H195.495V68.168C195.495 67.6347 195.356 67.208 195.079 66.888C194.812 66.568 194.407 66.408 193.863 66.408C193.34 66.408 192.913 66.5947 192.583 66.968C192.252 67.3307 192.087 67.7893 192.087 68.344V73H190.583V68.168C190.583 67.6347 190.444 67.208 190.167 66.888C189.9 66.568 189.495 66.408 188.951 66.408C188.417 66.408 187.985 66.5893 187.655 66.952C187.324 67.3147 187.159 67.784 187.159 68.36V73Z" fill="#3F3232"/>
<path d="M14.727 20.7218L14.7778 20.7686L14.8286 20.7218L17.7333 18.0464L18.8893 19.1111L14.7778 22.898L11.9329 20.2778L13.0889 19.2131L14.727 20.7218ZM1.68889 19.9639H10.0583V21.3694H1.68889C0.795495 21.3694 0.075 20.6973 0.075 19.8889V10.5556C0.075 9.74711 0.795495 9.075 1.68889 9.075H15.2C16.0934 9.075 16.8139 9.74711 16.8139 10.5556V15.925H15.275V12.1111V11.9814L15.1626 12.0461L8.44444 15.9135L1.72631 12.0461L1.61389 11.9814V12.1111V19.8889V19.9639H1.68889ZM15.2374 10.6206L15.4806 10.4806H15.2H1.68889H1.40827L1.65147 10.6206L8.40703 14.5094L8.44444 14.531L8.48186 14.5094L15.2374 10.6206Z" fill="#3F3232" stroke="white" stroke-width="0.15"/>
<g clip-path="url(#clip0_401_38)">
<path fill-rule="evenodd" clip-rule="evenodd" d="M1.08162 64.9688H3.72725C3.75912 64.0369 3.87387 63.1434 4.05875 62.3125H1.77863C1.38244 63.1466 1.14603 64.0476 1.08162 64.9688ZM2.39594 61.25H4.34562C4.52271 60.6856 4.7503 60.1383 5.02563 59.6148C5.20934 59.2674 5.4215 58.9359 5.65994 58.6235C4.34347 59.1694 3.21084 60.0808 2.39594 61.25ZM8.5 57C6.24566 57 4.08365 57.8955 2.48959 59.4896C0.895533 61.0837 0 63.2457 0 65.5C0 67.7543 0.895533 69.9163 2.48959 71.5104C4.08365 73.1045 6.24566 74 8.5 74C10.7543 74 12.9163 73.1045 14.5104 71.5104C16.1045 69.9163 17 67.7543 17 65.5C17 63.2457 16.1045 61.0837 14.5104 59.4896C12.9163 57.8955 10.7543 57 8.5 57V57ZM7.96875 58.1443C7.25688 58.3611 6.55031 59.0156 5.96381 60.1152C5.78 60.4595 5.61319 60.8399 5.46656 61.25H7.96875V58.1443ZM7.96875 62.3125H5.14994C4.94096 63.1835 4.82064 64.0735 4.79081 64.9688H7.96875V62.3125ZM9.03125 64.9688V62.3125H11.8501C12.0487 63.1253 12.1752 64.021 12.2092 64.9688H9.03125ZM7.96875 66.0312H4.79188C4.82135 66.9265 4.94132 67.8164 5.14994 68.6875H7.96875V66.0312ZM9.03125 68.6875V66.0312H12.2081C12.1787 66.9265 12.0587 67.8164 11.8501 68.6875H9.03125ZM7.96875 69.75H5.46656C5.61319 70.1601 5.78 70.5405 5.96381 70.8847C6.55031 71.9844 7.25794 72.6379 7.96875 72.8557V69.75ZM5.65994 72.3765C5.42148 72.0642 5.20932 71.7326 5.02563 71.3852C4.7503 70.8617 4.52271 70.3144 4.34562 69.75H2.39594C3.21084 70.9192 4.34347 71.8306 5.65994 72.3765ZM1.77863 68.6875H4.05875C3.86661 67.8142 3.75563 66.925 3.72725 66.0312H1.08162C1.1475 66.9769 1.39081 67.8726 1.77863 68.6875ZM11.3401 72.3765C12.6565 71.8306 13.7892 70.9192 14.6041 69.75H12.6554C12.4779 70.3144 12.25 70.8617 11.9744 71.3852C11.7907 71.7326 11.5785 72.0642 11.3401 72.3765ZM11.5334 69.75H9.03125V72.8557C9.74312 72.6389 10.4497 71.9844 11.0362 70.8847C11.2294 70.5191 11.3956 70.1399 11.5334 69.75ZM12.9412 68.6875H15.2214C15.6092 67.8726 15.8525 66.9769 15.9184 66.0312H13.2727C13.2444 66.925 13.1334 67.8142 12.9412 68.6875ZM13.2727 64.9688H15.9184C15.8539 64.0476 15.6175 63.1466 15.2214 62.3125H12.9412C13.1261 63.1434 13.2409 64.0369 13.2727 64.9688ZM12.6544 61.25C12.4772 60.6856 12.2496 60.1384 11.9744 59.6148C11.7907 59.2674 11.5785 58.9358 11.3401 58.6235C12.6565 59.1694 13.7892 60.0808 14.6041 61.25H12.6554H12.6544ZM11.5334 61.25H9.03125V58.1443C9.74312 58.3611 10.4497 59.0156 11.0362 60.1152C11.22 60.4595 11.3868 60.8399 11.5334 61.25Z" fill="#3F3232"/>
</g>
<defs>
<clipPath id="clip0_401_38">
<rect width="17" height="17" fill="white" transform="translate(0 57)"/>
</clipPath>
</defs>
</svg>
